<mxfile host="app.diagrams.net" agent="Mozilla/5.0 (Windows NT 10.0; Win64; x64) AppleWebKit/537.36 (KHTML, like Gecko) Chrome/130.0.0.0 Safari/537.36" border="50" scale="3" compressed="false" locked="false" version="24.8.4">
  <diagram name="Blank" id="YmL12bMKpDGza6XwsDPr">
    <mxGraphModel dx="1934" dy="600" grid="0" gridSize="10" guides="1" tooltips="1" connect="1" arrows="1" fold="1" page="0" pageScale="1" pageWidth="827" pageHeight="1169" background="none" math="1" shadow="0">
      <root>
        <mxCell id="X5NqExCQtvZxIxQ7pmgY-0" />
        <mxCell id="1" parent="X5NqExCQtvZxIxQ7pmgY-0" />
        <mxCell id="cql730DnJrorzn_j0XCP-13" value="" style="group" vertex="1" connectable="0" parent="1">
          <mxGeometry x="-281" y="330" width="180" height="120" as="geometry" />
        </mxCell>
        <mxCell id="cql730DnJrorzn_j0XCP-3" value="应用服务器" style="verticalAlign=top;align=left;spacingTop=8;spacingLeft=2;spacingRight=12;shape=cube;size=10;direction=south;fontStyle=4;html=1;whiteSpace=wrap;" vertex="1" parent="cql730DnJrorzn_j0XCP-13">
          <mxGeometry y="3" width="180" height="120" as="geometry" />
        </mxCell>
        <mxCell id="cql730DnJrorzn_j0XCP-17" style="edgeStyle=orthogonalEdgeStyle;rounded=0;orthogonalLoop=1;jettySize=auto;html=1;" edge="1" parent="cql730DnJrorzn_j0XCP-13" source="cql730DnJrorzn_j0XCP-8">
          <mxGeometry relative="1" as="geometry">
            <mxPoint x="90" y="234.3333740234375" as="targetPoint" />
          </mxGeometry>
        </mxCell>
        <mxCell id="cql730DnJrorzn_j0XCP-8" value="Tomcat容器" style="html=1;whiteSpace=wrap;" vertex="1" parent="cql730DnJrorzn_j0XCP-13">
          <mxGeometry x="23.5" y="43" width="133" height="64" as="geometry" />
        </mxCell>
        <mxCell id="cql730DnJrorzn_j0XCP-20" style="edgeStyle=orthogonalEdgeStyle;rounded=0;orthogonalLoop=1;jettySize=auto;html=1;entryX=0.5;entryY=0;entryDx=0;entryDy=0;" edge="1" parent="1" source="cql730DnJrorzn_j0XCP-18" target="cql730DnJrorzn_j0XCP-23">
          <mxGeometry relative="1" as="geometry">
            <mxPoint x="-393" y="671" as="targetPoint" />
          </mxGeometry>
        </mxCell>
        <mxCell id="cql730DnJrorzn_j0XCP-26" style="edgeStyle=orthogonalEdgeStyle;rounded=0;orthogonalLoop=1;jettySize=auto;html=1;entryX=0.5;entryY=0;entryDx=0;entryDy=0;" edge="1" parent="1" source="cql730DnJrorzn_j0XCP-18" target="cql730DnJrorzn_j0XCP-24">
          <mxGeometry relative="1" as="geometry" />
        </mxCell>
        <mxCell id="cql730DnJrorzn_j0XCP-27" style="edgeStyle=orthogonalEdgeStyle;rounded=0;orthogonalLoop=1;jettySize=auto;html=1;" edge="1" parent="1" source="cql730DnJrorzn_j0XCP-18" target="cql730DnJrorzn_j0XCP-28">
          <mxGeometry relative="1" as="geometry">
            <mxPoint x="50.66668701171875" y="670.6666564941406" as="targetPoint" />
          </mxGeometry>
        </mxCell>
        <mxCell id="cql730DnJrorzn_j0XCP-18" value="Internet" style="ellipse;shape=cloud;whiteSpace=wrap;html=1;align=center;" vertex="1" parent="1">
          <mxGeometry x="-268.5" y="510" width="153" height="77" as="geometry" />
        </mxCell>
        <mxCell id="cql730DnJrorzn_j0XCP-23" value="" style="shape=actor;whiteSpace=wrap;html=1;" vertex="1" parent="1">
          <mxGeometry x="-406" y="644" width="40" height="60" as="geometry" />
        </mxCell>
        <mxCell id="cql730DnJrorzn_j0XCP-24" value="" style="shape=actor;whiteSpace=wrap;html=1;" vertex="1" parent="1">
          <mxGeometry x="-212" y="644" width="40" height="60" as="geometry" />
        </mxCell>
        <mxCell id="cql730DnJrorzn_j0XCP-28" value="" style="shape=actor;whiteSpace=wrap;html=1;" vertex="1" parent="1">
          <mxGeometry x="-4" y="644" width="40" height="60" as="geometry" />
        </mxCell>
        <mxCell id="cql730DnJrorzn_j0XCP-29" value="" style="group" vertex="1" connectable="0" parent="1">
          <mxGeometry x="-539" y="337" width="180" height="120" as="geometry" />
        </mxCell>
        <mxCell id="cql730DnJrorzn_j0XCP-1" value="数据库服务器" style="verticalAlign=top;align=left;spacingTop=8;spacingLeft=2;spacingRight=12;shape=cube;size=10;direction=south;fontStyle=4;html=1;whiteSpace=wrap;" vertex="1" parent="cql730DnJrorzn_j0XCP-29">
          <mxGeometry width="180" height="120" as="geometry" />
        </mxCell>
        <mxCell id="cql730DnJrorzn_j0XCP-19" value="Mysql数据库" style="strokeWidth=2;html=1;shape=mxgraph.flowchart.direct_data;whiteSpace=wrap;" vertex="1" parent="cql730DnJrorzn_j0XCP-29">
          <mxGeometry x="33" y="39" width="100" height="61" as="geometry" />
        </mxCell>
        <mxCell id="cql730DnJrorzn_j0XCP-16" value="" style="line;strokeWidth=1;fillColor=none;align=left;verticalAlign=middle;spacingTop=-1;spacingLeft=3;spacingRight=3;rotatable=0;labelPosition=right;points=[];portConstraint=eastwest;strokeColor=inherit;" vertex="1" parent="1">
          <mxGeometry x="-363" y="393" width="81" height="8" as="geometry" />
        </mxCell>
        <mxCell id="cql730DnJrorzn_j0XCP-31" value="custom" style="text;html=1;align=center;verticalAlign=middle;resizable=0;points=[];autosize=1;strokeColor=none;fillColor=none;" vertex="1" parent="1">
          <mxGeometry x="-414.5" y="700" width="57" height="26" as="geometry" />
        </mxCell>
        <mxCell id="cql730DnJrorzn_j0XCP-32" value="mannager" style="text;html=1;align=center;verticalAlign=middle;resizable=0;points=[];autosize=1;strokeColor=none;fillColor=none;" vertex="1" parent="1">
          <mxGeometry x="-229" y="700" width="72" height="26" as="geometry" />
        </mxCell>
        <mxCell id="cql730DnJrorzn_j0XCP-34" value="admin" style="text;html=1;align=center;verticalAlign=middle;resizable=0;points=[];autosize=1;strokeColor=none;fillColor=none;" vertex="1" parent="1">
          <mxGeometry x="-9.5" y="704" width="51" height="26" as="geometry" />
        </mxCell>
      </root>
    </mxGraphModel>
  </diagram>
</mxfile>
